<svg width="700" height="480" xmlns="http://www.w3.org/2000/svg">

 <g>
  <title>background</title>
  <rect fill="none" id="canvas_background" height="482" width="702" y="-1" x="-1"/>
 </g>
 <g>
  <title>Layer 1</title>
  <g stroke="null" id="svg_1">
   <path stroke="null" id="svg_2" fill="#E1705C" d="m531.000001,239.000003c0,-99.962201 -79.24691,-181.000003 -177.000001,-181.000003s-177.000001,81.037802 -177.000001,181.000003s79.24691,181.000003 177.000001,181.000003s177.000001,-81.037802 177.000001,-181.000003"/>
   <path stroke="null" id="svg_3" fill="#556080" d="m404.511376,126.654857l-101.024133,0l-16.832977,43.689583l-38.854266,0c-8.764266,0 -15.869156,7.264746 -15.869156,16.227782l0,123.311202c0,9.105856 7.226578,16.495746 16.137422,16.495746l211.869001,0c8.910844,0 16.131199,-7.389891 16.131199,-16.495746l0,-123.311202c0,-8.962328 -7.104199,-16.227782 -15.869156,-16.227782l-38.848735,0l-16.839199,-43.689583z"/>
   <g stroke="null" id="svg_4">
    <path stroke="null" id="svg_5" fill="#8B9BC1" d="m402.827802,239.000003c0,-27.574219 -21.862266,-49.931255 -48.827801,-49.931255s-48.827801,22.357036 -48.827801,49.931255s21.862957,49.931255 48.827801,49.931255s48.827801,-22.357036 48.827801,-49.931255"/>
    <path stroke="null" id="svg_6" fill="#8B9BC1" d="m457.758646,201.551386c0,-6.896383 -5.462801,-12.482637 -12.206777,-12.482637s-12.206777,5.586254 -12.206777,12.482637c0,6.896383 5.462801,12.482637 12.206777,12.482637s12.206777,-5.585547 12.206777,-12.482637"/>
   </g>
   <polygon stroke="null" id="svg_7" fill="#FFFFFF" points="232.7418670654297,371.0076904296875 224.14768981933594,362.1450500488281 475.59759521484375,107.34088134765625 484.19110107421875,116.20352172851562 "/>
  </g>
  <g id="svg_8"/>
  <g id="svg_9"/>
  <g id="svg_10"/>
  <g id="svg_11"/>
  <g id="svg_12"/>
  <g id="svg_13"/>
  <g id="svg_14"/>
  <g id="svg_15"/>
  <g id="svg_16"/>
  <g id="svg_17"/>
  <g id="svg_18"/>
  <g id="svg_19"/>
  <g id="svg_20"/>
  <g id="svg_21"/>
  <g id="svg_22"/>
 </g>
</svg>